<svg xmlns="http://www.w3.org/2000/svg" xmlns:xlink="http://www.w3.org/1999/xlink" version="1.1" x="0px" y="0px" viewBox="0 0 100 100" enable-background="new 0 0 100 100" xml:space="preserve">
	<path fill="#fff" d="M85.634,41.36c1.019-5.892,1.065-10.937,1.066-11.836c0-0.091,0-0.14,0-0.142l-0.008-0.73l-0.729,0.038  c-0.021,0.001-3.438,0.181-8.022,1.025c-4.326,0.799-9.679,2.194-14.234,4.613c-1.232-5.423-4.372-10.818-7.285-14.96  c-3.08-4.371-5.893-7.333-5.908-7.35l-0.507-0.534l-0.508,0.534c-0.015,0.017-2.832,2.979-5.915,7.35  c-2.917,4.142-6.06,9.536-7.291,14.96c-4.555-2.419-9.907-3.814-14.233-4.613c-4.584-0.844-8.001-1.023-8.022-1.025l-0.729-0.038  l-0.008,0.73c0,0.002,0,0.052,0,0.145c0,0.906,0.047,5.952,1.066,11.841c1.027,5.889,2.993,12.633,7.005,16.965l0,0  c1.015,1.09,2.131,1.977,3.302,2.707c-4.386,4.543-7.326,9.499-7.343,9.525l-0.369,0.622l0.634,0.349  c0.019,0.01,2.578,1.417,6.238,2.829c3.664,1.409,8.421,2.832,12.899,2.836c1.489,0,2.949-0.159,4.327-0.539  c2.353-0.648,4.29-1.897,5.857-3.394c0.917-0.875,1.696-1.838,2.381-2.819V87.5c0,0.387,0.313,0.7,0.7,0.7s0.7-0.313,0.7-0.7V70.443  c0.685,0.983,1.466,1.947,2.384,2.824c1.567,1.497,3.503,2.746,5.857,3.394c1.378,0.379,2.838,0.538,4.327,0.539  c4.478-0.004,9.235-1.427,12.898-2.836c3.661-1.411,6.219-2.818,6.238-2.829l0.634-0.349l-0.369-0.622  c-0.017-0.026-2.957-4.981-7.34-9.525c1.169-0.73,2.286-1.617,3.299-2.707C82.641,53.999,84.606,47.25,85.634,41.36z M73.87,60.284  l-0.816,0.452l0.662,0.658c2.288,2.274,4.231,4.752,5.598,6.659c0.683,0.954,1.223,1.764,1.59,2.333  c0.064,0.1,0.116,0.182,0.169,0.266c-1.045,0.535-3.278,1.621-6.094,2.665c-3.467,1.288-7.793,2.487-11.712,2.484  c-1.389,0-2.726-0.149-3.955-0.488c-2.097-0.578-3.827-1.688-5.262-3.057c-1.391-1.327-2.491-2.899-3.351-4.438V57.733l4.905,3.345  c0.319,0.218,0.755,0.136,0.973-0.184s0.136-0.755-0.184-0.973l-5.027-3.428l11.023-7.413c0.321-0.216,0.406-0.651,0.19-0.972  c-0.216-0.321-0.651-0.406-0.972-0.19l-10.909,7.336V43.5c0-0.387-0.313-0.7-0.7-0.7s-0.7,0.313-0.7,0.7v11.63l-10.914-7.214  c-0.322-0.213-0.756-0.125-0.97,0.198c-0.213,0.322-0.125,0.756,0.198,0.97l11.169,7.383l-5.172,3.451  c-0.321,0.214-0.408,0.649-0.193,0.971c0.214,0.321,0.649,0.408,0.971,0.193l4.911-3.277v10.019  c-0.859,1.536-1.959,3.106-3.348,4.432c-1.436,1.37-3.167,2.479-5.263,3.057c-1.229,0.339-2.566,0.488-3.955,0.488  c-4.182,0.003-8.824-1.363-12.396-2.742c-1.787-0.689-3.309-1.378-4.381-1.895c-0.427-0.206-0.759-0.373-1.032-0.512  c0.975-1.536,3.728-5.649,7.361-9.257l0.663-0.658l-0.817-0.451c-1.339-0.74-2.602-1.689-3.734-2.904  c-3.684-3.944-5.66-10.484-6.65-16.251c-0.857-4.945-1.013-9.305-1.04-10.988c1.431,0.114,4.819,0.448,8.834,1.293  c4.151,0.872,8.954,2.294,12.879,4.542l0.857,0.491l0.179-0.971c0.986-5.375,4.246-11.038,7.271-15.322  c1.512-2.144,2.962-3.946,4.032-5.21c0.517-0.61,0.942-1.091,1.245-1.429c1.007,1.12,3.391,3.872,5.841,7.458  c2.853,4.17,5.771,9.464,6.697,14.503l0.18,0.97l0.856-0.49c4.486-2.57,10.118-4.059,14.615-4.885  c2.249-0.414,4.215-0.666,5.616-0.813c0.614-0.064,1.111-0.108,1.484-0.138c-0.027,1.682-0.183,6.038-1.039,10.98  c-0.99,5.769-2.967,12.313-6.653,16.259C76.47,58.596,75.209,59.544,73.87,60.284z"/>
</svg>